# xmcd CD database file
#
# Track frame offsets:
#	150
#	37638
#	73878
#	93893
#	126678
#	145310
#	180160
#	214975
#	252248
#	285975
#
# Disc length: 4333 seconds
#
# Revision: 0
# Processed by: cddbd v1.5PL3 Copyright (c) Steve Scherf et al.
# Submitted via: CDex 1.51
#
DISCID=8f10eb0a
DTITLE=全日本吹奏楽コンクール全国大会ライブ録音盤 - 全日本吹奏楽2003 vol.12 一般編 1
DYEAR=2003
DGENRE=Classical
TTITLE0=「GR」より　シンフォニック･セレクション／天野正道(東海市吹奏楽団)
TTITLE1=写楽／高橋伸哉(大津シンフォニックバンド)
TTITLE2=課題曲（ I ）ウィナーズ─吹奏楽のための行進曲／諏訪雅彦(川口市･アンサンブルリベルテ吹奏楽団)
TTITLE3=ハリスンの夢／ピーター・グレイアム(川口市･アンサンブルリベルテ吹奏楽団)
TTITLE4=課題曲（ I ）ウィナーズ─吹奏楽のための行進曲／諏訪雅彦(横浜ブラスオルケスター)
TTITLE5=バレエ音楽「ガイーヌ」より 序奏、友情の踊り、アイシェの孤独、剣の舞、収穫祭／アラン・ハチャトゥリャン(横浜ブラスオルケスター)
TTITLE6=歌劇「カヴァレリア・ルスティカーナ」より　プレリュード／P.マスカーニ(尼崎市吹奏楽団)
TTITLE7=アルプスの詩／フランコ・チェザリーニ(関城吹奏楽団)
TTITLE8=交響曲第１番「指輪物語」より／ヨハン・デメイ(交響曲第１番「指輪物語」より／ヨハン・デメイ)
TTITLE9=歌劇「ラ・ボエーム」ファンタジア／ジャコモ・プッチーニ(米沢吹奏楽愛好会)
EXTD=YEAR: 2003
EXTT0=
EXTT1=
EXTT2=
EXTT3=
EXTT4=
EXTT5=
EXTT6=
EXTT7=
EXTT8=
EXTT9=
PLAYORDER=
